<mxfile host="app.diagrams.net" modified="2023-10-25T03:27:17.089Z" agent="Mozilla/5.0 (Macintosh; Intel Mac OS X 10_15_7) AppleWebKit/537.36 (KHTML, like Gecko) Chrome/117.0.0.0 Safari/537.36" etag="RMQFKqIk1dJ-WRncjjHH" version="22.0.7" type="google">
  <diagram name="Page-1" id="v6maBPc58zFwQGpOeHck">
    <mxGraphModel grid="1" page="1" gridSize="10" guides="1" tooltips="1" connect="1" arrows="1" fold="1" pageScale="1" pageWidth="850" pageHeight="1100" math="0" shadow="0">
      <root>
        <mxCell id="0" />
        <mxCell id="1" parent="0" />
        <mxCell id="7BLtupsmZaeIrGH96XGS-1" value="Controlador" style="shape=folder;fontStyle=1;tabWidth=76;tabHeight=20;tabPosition=left;html=1;boundedLbl=1;labelInHeader=1;container=1;collapsible=0;whiteSpace=wrap;fillColor=#dae8fc;strokeColor=#6c8ebf;" vertex="1" parent="1">
          <mxGeometry x="960" y="-490" width="610" height="380" as="geometry" />
        </mxCell>
        <mxCell id="7BLtupsmZaeIrGH96XGS-2" value="" style="html=1;strokeColor=none;resizeWidth=1;resizeHeight=1;fillColor=none;part=1;connectable=0;allowArrows=0;deletable=0;whiteSpace=wrap;" vertex="1" parent="7BLtupsmZaeIrGH96XGS-1">
          <mxGeometry width="609.9999999999999" height="266" relative="1" as="geometry">
            <mxPoint y="30" as="offset" />
          </mxGeometry>
        </mxCell>
        <mxCell id="7BLtupsmZaeIrGH96XGS-3" value="VerParticipantes" style="swimlane;fontStyle=1;align=center;verticalAlign=top;childLayout=stackLayout;horizontal=1;startSize=26;horizontalStack=0;resizeParent=1;resizeParentMax=0;resizeLast=0;collapsible=1;marginBottom=0;whiteSpace=wrap;html=1;swimlaneFillColor=#F0F0F0;gradientColor=none;" vertex="1" parent="7BLtupsmZaeIrGH96XGS-1">
          <mxGeometry x="10.217755443886096" y="40" width="585.92" height="99.99689655172415" as="geometry" />
        </mxCell>
        <mxCell id="7BLtupsmZaeIrGH96XGS-4" value="" style="line;strokeWidth=1;fillColor=none;align=left;verticalAlign=middle;spacingTop=-1;spacingLeft=3;spacingRight=3;rotatable=0;labelPosition=right;points=[];portConstraint=eastwest;strokeColor=inherit;" vertex="1" parent="7BLtupsmZaeIrGH96XGS-3">
          <mxGeometry y="26" width="585.92" height="26.206896551724142" as="geometry" />
        </mxCell>
        <mxCell id="7BLtupsmZaeIrGH96XGS-5" value="+ obtenerInformacion(participanteId: int): Participante" style="text;strokeColor=none;fillColor=none;align=left;verticalAlign=top;spacingLeft=4;spacingRight=4;overflow=hidden;rotatable=0;points=[[0,0.5],[1,0.5]];portConstraint=eastwest;whiteSpace=wrap;html=1;" vertex="1" parent="7BLtupsmZaeIrGH96XGS-3">
          <mxGeometry y="52.20689655172414" width="585.92" height="47.79" as="geometry" />
        </mxCell>
        <mxCell id="7BLtupsmZaeIrGH96XGS-6" value="Modelo" style="shape=folder;fontStyle=1;tabWidth=60;tabHeight=20;tabPosition=left;html=1;boundedLbl=1;labelInHeader=1;container=1;collapsible=0;whiteSpace=wrap;fillColor=#d5e8d4;strokeColor=#82b366;" vertex="1" parent="1">
          <mxGeometry x="1090" y="-100" width="380" height="380" as="geometry" />
        </mxCell>
        <mxCell id="7BLtupsmZaeIrGH96XGS-7" value="" style="html=1;strokeColor=none;resizeWidth=1;resizeHeight=1;fillColor=none;part=1;connectable=0;allowArrows=0;deletable=0;whiteSpace=wrap;" vertex="1" parent="7BLtupsmZaeIrGH96XGS-6">
          <mxGeometry width="300" height="229.31034482758625" relative="1" as="geometry">
            <mxPoint y="30" as="offset" />
          </mxGeometry>
        </mxCell>
        <mxCell id="7BLtupsmZaeIrGH96XGS-8" value="ParticipanteBD" style="swimlane;fontStyle=1;align=center;verticalAlign=top;childLayout=stackLayout;horizontal=1;startSize=26;horizontalStack=0;resizeParent=1;resizeParentMax=0;resizeLast=0;collapsible=1;marginBottom=0;whiteSpace=wrap;html=1;swimlaneFillColor=#F0F0F0;gradientColor=none;" vertex="1" parent="7BLtupsmZaeIrGH96XGS-6">
          <mxGeometry x="17.27" y="40" width="354.09" height="94" as="geometry">
            <mxRectangle x="17.27" y="40" width="100" height="30" as="alternateBounds" />
          </mxGeometry>
        </mxCell>
        <mxCell id="7BLtupsmZaeIrGH96XGS-9" value="- participante: Participante&lt;br&gt;&lt;br&gt;&lt;br&gt;" style="text;strokeColor=none;fillColor=none;align=left;verticalAlign=top;spacingLeft=4;spacingRight=4;overflow=hidden;rotatable=0;points=[[0,0.5],[1,0.5]];portConstraint=eastwest;whiteSpace=wrap;html=1;" vertex="1" parent="7BLtupsmZaeIrGH96XGS-8">
          <mxGeometry y="26" width="354.09" height="24" as="geometry" />
        </mxCell>
        <mxCell id="7BLtupsmZaeIrGH96XGS-10" value="" style="line;strokeWidth=1;fillColor=none;align=left;verticalAlign=middle;spacingTop=-1;spacingLeft=3;spacingRight=3;rotatable=0;labelPosition=right;points=[];portConstraint=eastwest;strokeColor=inherit;" vertex="1" parent="7BLtupsmZaeIrGH96XGS-8">
          <mxGeometry y="50" width="354.09" height="20" as="geometry" />
        </mxCell>
        <mxCell id="tLC3mutLhORQv-bThoGp-1" value="+ obtenerParticipante(idParticipante: int): Participante" style="text;strokeColor=none;fillColor=none;align=left;verticalAlign=top;spacingLeft=4;spacingRight=4;overflow=hidden;rotatable=0;points=[[0,0.5],[1,0.5]];portConstraint=eastwest;whiteSpace=wrap;html=1;" vertex="1" parent="7BLtupsmZaeIrGH96XGS-8">
          <mxGeometry y="70" width="354.09" height="24" as="geometry" />
        </mxCell>
        <mxCell id="7BLtupsmZaeIrGH96XGS-12" value="ConexionBD" style="swimlane;fontStyle=1;align=center;verticalAlign=top;childLayout=stackLayout;horizontal=1;startSize=26;horizontalStack=0;resizeParent=1;resizeParentMax=0;resizeLast=0;collapsible=1;marginBottom=0;whiteSpace=wrap;html=1;swimlaneFillColor=#F0F0F0;gradientColor=none;" vertex="1" parent="7BLtupsmZaeIrGH96XGS-6">
          <mxGeometry x="124.31" y="230" width="140" height="97.2115063520871" as="geometry" />
        </mxCell>
        <mxCell id="7BLtupsmZaeIrGH96XGS-13" value="" style="line;strokeWidth=1;fillColor=none;align=left;verticalAlign=middle;spacingTop=-1;spacingLeft=3;spacingRight=3;rotatable=0;labelPosition=right;points=[];portConstraint=eastwest;strokeColor=inherit;" vertex="1" parent="7BLtupsmZaeIrGH96XGS-12">
          <mxGeometry y="26" width="140" height="31.724137931034484" as="geometry" />
        </mxCell>
        <mxCell id="7BLtupsmZaeIrGH96XGS-14" value="+ conectarBD()&lt;br&gt;+ desconectarBD()" style="text;strokeColor=none;fillColor=none;align=left;verticalAlign=top;spacingLeft=4;spacingRight=4;overflow=hidden;rotatable=0;points=[[0,0.5],[1,0.5]];portConstraint=eastwest;whiteSpace=wrap;html=1;" vertex="1" parent="7BLtupsmZaeIrGH96XGS-12">
          <mxGeometry y="57.724137931034484" width="140" height="39.48736842105262" as="geometry" />
        </mxCell>
        <mxCell id="7BLtupsmZaeIrGH96XGS-15" value="Vista" style="shape=folder;fontStyle=1;tabWidth=50;tabHeight=20;tabPosition=left;html=1;boundedLbl=1;labelInHeader=1;container=1;collapsible=0;whiteSpace=wrap;fillColor=#f8cecc;strokeColor=#b85450;" vertex="1" parent="1">
          <mxGeometry x="945.5" y="-990" width="689" height="480" as="geometry" />
        </mxCell>
        <mxCell id="7BLtupsmZaeIrGH96XGS-16" value="" style="html=1;strokeColor=none;resizeWidth=1;resizeHeight=1;fillColor=none;part=1;connectable=0;allowArrows=0;deletable=0;whiteSpace=wrap;" vertex="1" parent="7BLtupsmZaeIrGH96XGS-15">
          <mxGeometry width="688.9999999999999" height="317.3365701404543" relative="1" as="geometry">
            <mxPoint y="30" as="offset" />
          </mxGeometry>
        </mxCell>
        <mxCell id="7BLtupsmZaeIrGH96XGS-17" value="PantallaInicioAdministradorIH" style="swimlane;fontStyle=1;align=center;verticalAlign=top;childLayout=stackLayout;horizontal=1;startSize=26;horizontalStack=0;resizeParent=1;resizeParentMax=0;resizeLast=0;collapsible=1;marginBottom=0;whiteSpace=wrap;html=1;swimlaneFillColor=#F0F0F0;gradientColor=none;" vertex="1" parent="7BLtupsmZaeIrGH96XGS-15">
          <mxGeometry x="31.32574137931033" y="47.71978498352695" width="285.1050681818182" height="102.34795357653235" as="geometry" />
        </mxCell>
        <mxCell id="7BLtupsmZaeIrGH96XGS-18" value="" style="line;strokeWidth=1;fillColor=none;align=left;verticalAlign=middle;spacingTop=-1;spacingLeft=3;spacingRight=3;rotatable=0;labelPosition=right;points=[];portConstraint=eastwest;strokeColor=inherit;" vertex="1" parent="7BLtupsmZaeIrGH96XGS-17">
          <mxGeometry y="26" width="285.1050681818182" height="31.264686713345252" as="geometry" />
        </mxCell>
        <mxCell id="7BLtupsmZaeIrGH96XGS-19" value="+ buscarParticipantes()&lt;br style=&quot;border-color: var(--border-color);&quot;&gt;+ buscarTorneos()" style="text;strokeColor=none;fillColor=none;align=left;verticalAlign=top;spacingLeft=4;spacingRight=4;overflow=hidden;rotatable=0;points=[[0,0.5],[1,0.5]];portConstraint=eastwest;whiteSpace=wrap;html=1;" vertex="1" parent="7BLtupsmZaeIrGH96XGS-17">
          <mxGeometry y="57.264686713345256" width="285.1050681818182" height="45.08326686318709" as="geometry" />
        </mxCell>
        <mxCell id="7BLtupsmZaeIrGH96XGS-20" value="CRUDParticipantes" style="swimlane;fontStyle=1;align=center;verticalAlign=top;childLayout=stackLayout;horizontal=1;startSize=26;horizontalStack=0;resizeParent=1;resizeParentMax=0;resizeLast=0;collapsible=1;marginBottom=0;whiteSpace=wrap;html=1;swimlaneFillColor=#F0F0F0;gradientColor=none;" vertex="1" parent="7BLtupsmZaeIrGH96XGS-15">
          <mxGeometry x="374.2598322884011" y="47.71978498352695" width="285.1050681818182" height="96.18017136741148" as="geometry" />
        </mxCell>
        <mxCell id="7BLtupsmZaeIrGH96XGS-21" value="" style="line;strokeWidth=1;fillColor=none;align=left;verticalAlign=middle;spacingTop=-1;spacingLeft=3;spacingRight=3;rotatable=0;labelPosition=right;points=[];portConstraint=eastwest;strokeColor=inherit;" vertex="1" parent="7BLtupsmZaeIrGH96XGS-20">
          <mxGeometry y="26" width="285.1050681818182" height="31.264686713345252" as="geometry" />
        </mxCell>
        <mxCell id="7BLtupsmZaeIrGH96XGS-22" value="+ verParticipante(participanteId: int)" style="text;strokeColor=none;fillColor=none;align=left;verticalAlign=top;spacingLeft=4;spacingRight=4;overflow=hidden;rotatable=0;points=[[0,0.5],[1,0.5]];portConstraint=eastwest;whiteSpace=wrap;html=1;" vertex="1" parent="7BLtupsmZaeIrGH96XGS-20">
          <mxGeometry y="57.264686713345256" width="285.1050681818182" height="38.915484654066226" as="geometry" />
        </mxCell>
        <mxCell id="7BLtupsmZaeIrGH96XGS-28" value="VistaParticipante&lt;br&gt;&lt;br&gt;" style="swimlane;fontStyle=1;align=center;verticalAlign=top;childLayout=stackLayout;horizontal=1;startSize=26;horizontalStack=0;resizeParent=1;resizeParentMax=0;resizeLast=0;collapsible=1;marginBottom=0;whiteSpace=wrap;html=1;swimlaneFillColor=#F0F0F0;gradientColor=none;" vertex="1" parent="7BLtupsmZaeIrGH96XGS-15">
          <mxGeometry x="31.33" y="200" width="635.5" height="90" as="geometry" />
        </mxCell>
        <mxCell id="7BLtupsmZaeIrGH96XGS-30" value="- participante: Participante" style="text;strokeColor=none;fillColor=none;align=left;verticalAlign=top;spacingLeft=4;spacingRight=4;overflow=hidden;rotatable=0;points=[[0,0.5],[1,0.5]];portConstraint=eastwest;whiteSpace=wrap;html=1;" vertex="1" parent="7BLtupsmZaeIrGH96XGS-28">
          <mxGeometry y="26" width="635.5" height="34" as="geometry" />
        </mxCell>
        <mxCell id="7BLtupsmZaeIrGH96XGS-29" value="" style="line;strokeWidth=1;fillColor=none;align=left;verticalAlign=middle;spacingTop=-1;spacingLeft=3;spacingRight=3;rotatable=0;labelPosition=right;points=[];portConstraint=eastwest;strokeColor=inherit;" vertex="1" parent="7BLtupsmZaeIrGH96XGS-28">
          <mxGeometry y="60" width="635.5" height="30" as="geometry" />
        </mxCell>
        <mxCell id="7BLtupsmZaeIrGH96XGS-23" value="&lt;font style=&quot;font-size: 40px;&quot;&gt;Diagrama de Clases de&lt;b&gt;&lt;br&gt;&lt;i&gt;Ver Participantes&lt;/i&gt;&lt;/b&gt;&lt;/font&gt;" style="text;html=1;strokeColor=none;fillColor=none;align=center;verticalAlign=middle;whiteSpace=wrap;rounded=0;" vertex="1" parent="1">
          <mxGeometry x="1040" y="-1110" width="500" height="160" as="geometry" />
        </mxCell>
        <mxCell id="NQAONDQL4ZT4UQyH3M8K-1" value="CRUDParticipantes" style="swimlane;fontStyle=1;align=center;verticalAlign=top;childLayout=stackLayout;horizontal=1;startSize=26;horizontalStack=0;resizeParent=1;resizeParentMax=0;resizeLast=0;collapsible=1;marginBottom=0;whiteSpace=wrap;html=1;swimlaneFillColor=#F0F0F0;gradientColor=none;" vertex="1" parent="1">
          <mxGeometry x="1329.7598322884012" y="-932.280215016473" width="285.1050681818182" height="96.18017136741148" as="geometry" />
        </mxCell>
        <mxCell id="NQAONDQL4ZT4UQyH3M8K-2" value="" style="line;strokeWidth=1;fillColor=none;align=left;verticalAlign=middle;spacingTop=-1;spacingLeft=3;spacingRight=3;rotatable=0;labelPosition=right;points=[];portConstraint=eastwest;strokeColor=inherit;" vertex="1" parent="NQAONDQL4ZT4UQyH3M8K-1">
          <mxGeometry y="26" width="285.1050681818182" height="31.264686713345252" as="geometry" />
        </mxCell>
        <mxCell id="NQAONDQL4ZT4UQyH3M8K-3" value="+ verParticipante(participanteId: int)" style="text;strokeColor=none;fillColor=none;align=left;verticalAlign=top;spacingLeft=4;spacingRight=4;overflow=hidden;rotatable=0;points=[[0,0.5],[1,0.5]];portConstraint=eastwest;whiteSpace=wrap;html=1;" vertex="1" parent="NQAONDQL4ZT4UQyH3M8K-1">
          <mxGeometry y="57.264686713345256" width="285.1050681818182" height="38.915484654066226" as="geometry" />
        </mxCell>
      </root>
    </mxGraphModel>
  </diagram>
</mxfile>
